<mxfile host="app.diagrams.net" modified="2023-11-02T07:35:18.005Z" agent="Mozilla/5.0 (Windows NT 10.0; Win64; x64) AppleWebKit/537.36 (KHTML, like Gecko) Chrome/118.0.0.0 Safari/537.36 Edg/118.0.2088.76" etag="7exy8FhESAtlmoIQR7-E" version="22.0.8" type="github">
  <diagram name="第 1 页" id="MDa1F14L48yZZPxCSAgg">
    <mxGraphModel dx="956" dy="577" grid="1" gridSize="10" guides="1" tooltips="1" connect="1" arrows="1" fold="1" page="1" pageScale="1" pageWidth="827" pageHeight="1169" math="0" shadow="0">
      <root>
        <mxCell id="0" />
        <mxCell id="1" parent="0" />
        <mxCell id="3itj26pfV0IaCJU3jLA4-1" value="" style="rounded=1;whiteSpace=wrap;html=1;fillColor=#ffe6cc;strokeColor=#d79b00;" vertex="1" parent="1">
          <mxGeometry x="30" y="170" width="350" height="380" as="geometry" />
        </mxCell>
        <mxCell id="3itj26pfV0IaCJU3jLA4-3" value="docker0" style="rounded=1;whiteSpace=wrap;html=1;fontSize=16;fillColor=#fff2cc;strokeColor=#d6b656;" vertex="1" parent="1">
          <mxGeometry x="105" y="280" width="190" height="60" as="geometry" />
        </mxCell>
        <mxCell id="3itj26pfV0IaCJU3jLA4-4" value="Pod1" style="ellipse;whiteSpace=wrap;html=1;aspect=fixed;fillColor=#fff2cc;strokeColor=#d6b656;" vertex="1" parent="1">
          <mxGeometry x="75" y="420" width="90" height="90" as="geometry" />
        </mxCell>
        <mxCell id="3itj26pfV0IaCJU3jLA4-5" value="Pod2" style="ellipse;whiteSpace=wrap;html=1;aspect=fixed;fillColor=#fff2cc;strokeColor=#d6b656;" vertex="1" parent="1">
          <mxGeometry x="245" y="420" width="90" height="90" as="geometry" />
        </mxCell>
        <mxCell id="3itj26pfV0IaCJU3jLA4-9" value="eth0" style="rounded=0;whiteSpace=wrap;html=1;fontSize=16;fillColor=#f8cecc;strokeColor=#b85450;" vertex="1" parent="1">
          <mxGeometry x="70" y="190" width="260" height="60" as="geometry" />
        </mxCell>
        <mxCell id="3itj26pfV0IaCJU3jLA4-11" value="" style="rounded=1;whiteSpace=wrap;html=1;fillColor=#ffe6cc;strokeColor=#d79b00;" vertex="1" parent="1">
          <mxGeometry x="475" y="170" width="350" height="380" as="geometry" />
        </mxCell>
        <mxCell id="3itj26pfV0IaCJU3jLA4-12" value="docker0" style="rounded=1;whiteSpace=wrap;html=1;fontSize=16;fillColor=#fff2cc;strokeColor=#d6b656;" vertex="1" parent="1">
          <mxGeometry x="555" y="280" width="190" height="60" as="geometry" />
        </mxCell>
        <mxCell id="3itj26pfV0IaCJU3jLA4-13" value="Pod1" style="ellipse;whiteSpace=wrap;html=1;aspect=fixed;fillColor=#fff2cc;strokeColor=#d6b656;" vertex="1" parent="1">
          <mxGeometry x="525" y="420" width="90" height="90" as="geometry" />
        </mxCell>
        <mxCell id="3itj26pfV0IaCJU3jLA4-14" value="Pod2" style="ellipse;whiteSpace=wrap;html=1;aspect=fixed;fillColor=#fff2cc;strokeColor=#d6b656;" vertex="1" parent="1">
          <mxGeometry x="700" y="420" width="90" height="90" as="geometry" />
        </mxCell>
        <mxCell id="3itj26pfV0IaCJU3jLA4-17" value="eth0" style="rounded=0;whiteSpace=wrap;html=1;fontSize=16;fillColor=#f8cecc;strokeColor=#b85450;" vertex="1" parent="1">
          <mxGeometry x="520" y="190" width="260" height="60" as="geometry" />
        </mxCell>
        <mxCell id="3itj26pfV0IaCJU3jLA4-18" value="" style="endArrow=classic;startArrow=classic;html=1;rounded=0;entryX=0.5;entryY=0;entryDx=0;entryDy=0;exitX=0.5;exitY=0;exitDx=0;exitDy=0;" edge="1" parent="1" source="3itj26pfV0IaCJU3jLA4-9" target="3itj26pfV0IaCJU3jLA4-17">
          <mxGeometry width="50" height="50" relative="1" as="geometry">
            <mxPoint x="155" y="40" as="sourcePoint" />
            <mxPoint x="695" y="40" as="targetPoint" />
            <Array as="points">
              <mxPoint x="200" y="40" />
              <mxPoint x="425" y="40" />
              <mxPoint x="650" y="40" />
            </Array>
          </mxGeometry>
        </mxCell>
        <mxCell id="3itj26pfV0IaCJU3jLA4-20" value="" style="endArrow=classic;startArrow=classic;html=1;rounded=0;entryX=0.5;entryY=1;entryDx=0;entryDy=0;exitX=0.5;exitY=0;exitDx=0;exitDy=0;" edge="1" parent="1" source="3itj26pfV0IaCJU3jLA4-3" target="3itj26pfV0IaCJU3jLA4-9">
          <mxGeometry width="50" height="50" relative="1" as="geometry">
            <mxPoint x="170" y="300" as="sourcePoint" />
            <mxPoint x="220" y="250" as="targetPoint" />
          </mxGeometry>
        </mxCell>
        <mxCell id="3itj26pfV0IaCJU3jLA4-22" value="" style="endArrow=classic;startArrow=classic;html=1;rounded=0;entryX=0.5;entryY=1;entryDx=0;entryDy=0;exitX=0.5;exitY=0;exitDx=0;exitDy=0;" edge="1" parent="1" source="3itj26pfV0IaCJU3jLA4-12" target="3itj26pfV0IaCJU3jLA4-17">
          <mxGeometry width="50" height="50" relative="1" as="geometry">
            <mxPoint x="390" y="330" as="sourcePoint" />
            <mxPoint x="440" y="280" as="targetPoint" />
          </mxGeometry>
        </mxCell>
        <mxCell id="3itj26pfV0IaCJU3jLA4-24" value="" style="endArrow=classic;startArrow=classic;html=1;rounded=0;entryX=0.5;entryY=1;entryDx=0;entryDy=0;" edge="1" parent="1" target="3itj26pfV0IaCJU3jLA4-3">
          <mxGeometry width="50" height="50" relative="1" as="geometry">
            <mxPoint x="120" y="420" as="sourcePoint" />
            <mxPoint x="170" y="370" as="targetPoint" />
            <Array as="points">
              <mxPoint x="120" y="370" />
              <mxPoint x="200" y="370" />
            </Array>
          </mxGeometry>
        </mxCell>
        <mxCell id="3itj26pfV0IaCJU3jLA4-25" value="" style="endArrow=classic;startArrow=classic;html=1;rounded=0;entryX=0.5;entryY=1;entryDx=0;entryDy=0;exitX=0.5;exitY=0;exitDx=0;exitDy=0;horizontal=0;" edge="1" parent="1" source="3itj26pfV0IaCJU3jLA4-5" target="3itj26pfV0IaCJU3jLA4-3">
          <mxGeometry width="50" height="50" relative="1" as="geometry">
            <mxPoint x="210" y="420" as="sourcePoint" />
            <mxPoint x="260" y="370" as="targetPoint" />
            <Array as="points">
              <mxPoint x="290" y="370" />
              <mxPoint x="200" y="370" />
            </Array>
          </mxGeometry>
        </mxCell>
        <mxCell id="3itj26pfV0IaCJU3jLA4-26" value="" style="endArrow=classic;startArrow=classic;html=1;rounded=0;entryX=0.5;entryY=1;entryDx=0;entryDy=0;exitX=0.5;exitY=0;exitDx=0;exitDy=0;horizontal=0;" edge="1" parent="1" source="3itj26pfV0IaCJU3jLA4-13" target="3itj26pfV0IaCJU3jLA4-12">
          <mxGeometry width="50" height="50" relative="1" as="geometry">
            <mxPoint x="580" y="420" as="sourcePoint" />
            <mxPoint x="630" y="370" as="targetPoint" />
            <Array as="points">
              <mxPoint x="570" y="380" />
              <mxPoint x="650" y="380" />
            </Array>
          </mxGeometry>
        </mxCell>
        <mxCell id="3itj26pfV0IaCJU3jLA4-27" value="" style="endArrow=classic;startArrow=classic;html=1;rounded=0;entryX=0.5;entryY=1;entryDx=0;entryDy=0;exitX=0.5;exitY=0;exitDx=0;exitDy=0;" edge="1" parent="1" source="3itj26pfV0IaCJU3jLA4-14" target="3itj26pfV0IaCJU3jLA4-12">
          <mxGeometry width="50" height="50" relative="1" as="geometry">
            <mxPoint x="390" y="430" as="sourcePoint" />
            <mxPoint x="440" y="480" as="targetPoint" />
            <Array as="points">
              <mxPoint x="745" y="380" />
              <mxPoint x="650" y="380" />
            </Array>
          </mxGeometry>
        </mxCell>
      </root>
    </mxGraphModel>
  </diagram>
</mxfile>
